<?xml version="1.0" encoding="UTF-8"?><svg id="uuid-c8332429-b4ed-4b6a-ae0b-a8a6eb960967" xmlns="http://www.w3.org/2000/svg" xmlns:xlink="http://www.w3.org/1999/xlink" viewBox="0 0 651.74 88.32"><defs><clipPath id="uuid-356b842f-812a-4dee-a0d5-21f209e508c4"><path id="uuid-1d6113f3-dd29-4555-afe0-76cc6dac543f" d="M0,14C0,6.27,4.56,0,10.18,0h631.37c5.62,0,10.18,6.27,10.18,14v60c0,7.73-4.56,14-10.18,14H10.18c-5.62,0-10.18-6.27-10.18-14V14Z" fill="none"/></clipPath></defs><g id="uuid-b5e5f71b-bb89-4129-90b2-86155466e085"><g clip-path="url(#uuid-356b842f-812a-4dee-a0d5-21f209e508c4)"><path id="uuid-19a40148-12a1-41db-887d-15b88f64f159" d="M0,14C0,6.27,4.56,0,10.18,0h631.37c5.62,0,10.18,6.27,10.18,14v60c0,7.73-4.56,14-10.18,14H10.18c-5.62,0-10.18-6.27-10.18-14V14Z" fill="#212a42"/><rect id="uuid-65735adb-59a0-4b84-a296-58816cb3bbfb" y="80.02" width="651.74" height="8.3" fill="#d9544d"/><g id="uuid-31d8189b-f6bf-4f28-a7cd-f2c05b8a076c"><path id="uuid-8a486f31-c2ba-4588-a8c4-a1767f25e668" d="M618.25,40c0-2.21,1.79-4,4-4h0c2.21,0,4,1.79,4,4h0c0,2.21-1.79,4-4,4h0c-2.21,0-4-1.79-4-4h0Z" fill="#d9544d"/><g id="uuid-cdd36e97-0909-4b67-afbf-87c772c5cb38"><circle id="uuid-ee5d2041-92ca-4c46-bbad-6cbb43cfaa49" cx="47.89" cy="40.02" r="24" fill="#d9544d"/><circle id="uuid-31c49990-2853-4c81-9ecf-6db94bd2de26" cx="47.89" cy="40.02" r="10.66" fill="none" stroke="#fff" stroke-miterlimit="10" stroke-width="1.98"/><path id="uuid-5043ae41-6d32-4014-bb1d-48af42e67f96" d="M46.88,44.88c0-.34.09-.62.28-.83.19-.21.43-.32.72-.32s.54.11.73.32c.19.21.28.49.28.83s-.09.63-.28.84c-.18.22-.43.33-.73.33s-.54-.11-.72-.33c-.18-.22-.28-.5-.28-.84ZM49.28,34.91l-.42,6.59c0,.22-.1.41-.29.55s-.42.22-.69.22-.5-.07-.68-.22-.28-.33-.3-.55l-.41-6.59v-.1c0-.39.12-.7.37-.93s.59-.34,1.02-.34.78.11,1.03.34.37.54.37.93v.1Z" fill="#fff"/></g><g id="uuid-dfbf52f8-7086-4b9c-b3fc-436e03046c0e"><text transform="translate(94.84 52.93)" fill="#8e9cc0" font-family="PTMono-Regular, &apos;PT Mono&apos;" font-size="14"><tspan x="0" y="0">{{ERROR_DESCRIPTION}}</tspan></text></g><g id="uuid-12a17257-93ed-4a74-9c28-8256b78d7d82"><text transform="translate(94.75 33.93)" fill="#fff" font-family="PTMono-Bold, &apos;PT Mono&apos;" font-size="14" font-weight="700"><tspan x="0" y="0">Connection failed</tspan></text></g></g></g></g></svg>